<?xml version="1.0" encoding="UTF-8"?>
<svg version="1.1" xmlns="http://www.w3.org/2000/svg" width="64" height="64">
<path d="M0 0 C3.40803264 2.68679782 5.91106727 5.55600674 7.1875 9.75 C8.01506306 16.74666952 7.44057559 21.51493846 4.1875 27.75 C3.92870881 31.09906244 4.00864156 34.39806036 4.1875 37.75 C3.42824219 37.59402344 2.66898438 37.43804687 1.88671875 37.27734375 C0.89285156 37.08269531 -0.10101563 36.88804688 -1.125 36.6875 C-2.11113281 36.49027344 -3.09726562 36.29304688 -4.11328125 36.08984375 C-6.90526461 35.54077784 -6.90526461 35.54077784 -9.8125 36.75 C-19.04613264 37.53345974 -27.12197957 37.50354233 -34.8125 31.75 C-39.88369714 27.00094858 -41.95039232 23.15216205 -42.25 16.125 C-42.17056881 9.55604084 -40.46673283 5.3947344 -35.8125 0.75 C-24.81941128 -7.29231228 -11.3974959 -7.3634142 0 0 Z M-18.8125 3.75 C-18.8125 4.74 -18.8125 5.73 -18.8125 6.75 C-22.4425 6.75 -26.0725 6.75 -29.8125 6.75 C-30.493125 7.9875 -31.17375 9.225 -31.875 10.5 C-32.25785156 11.19609375 -32.64070313 11.8921875 -33.03515625 12.609375 C-33.96053909 15.15766544 -33.81214911 16.25872786 -32.8125 18.75 C-30.98546773 20.9991908 -30.98546773 20.9991908 -28.3125 21 C-25.63953227 20.9991908 -25.63953227 20.9991908 -23.8125 18.75 C-24.22265778 14.09375005 -24.22265778 14.09375005 -25.8125 9.75 C-23.5025 9.75 -21.1925 9.75 -18.8125 9.75 C-18.8125 15.03 -18.8125 20.31 -18.8125 25.75 C-20.1325 25.75 -21.4525 25.75 -22.8125 25.75 C-22.8125 26.74 -22.8125 27.73 -22.8125 28.75 C-19.1825 28.75 -15.5525 28.75 -11.8125 28.75 C-11.8125 27.76 -11.8125 26.77 -11.8125 25.75 C-13.1325 25.75 -14.4525 25.75 -15.8125 25.75 C-15.8125 20.47 -15.8125 15.19 -15.8125 9.75 C-13.5025 9.75 -11.1925 9.75 -8.8125 9.75 C-9.1425 10.306875 -9.4725 10.86375 -9.8125 11.4375 C-10.96499005 14.10263324 -11.11524405 15.87393149 -10.8125 18.75 C-8.99046419 20.97966747 -8.99046419 20.97966747 -6.375 21.0625 C-3.80879985 20.93542656 -3.80879985 20.93542656 -1.9375 19.5625 C-0.58975833 17.77708085 -0.58975833 17.77708085 -0.9375 15.4375 C-1.94027886 12.35753637 -3.28635807 9.60322186 -4.8125 6.75 C-8.4425 6.75 -12.0725 6.75 -15.8125 6.75 C-15.8125 5.76 -15.8125 4.77 -15.8125 3.75 C-16.8025 3.75 -17.7925 3.75 -18.8125 3.75 Z " fill="#FFFFFF" transform="translate(56.8125,21.25)"/>
<path d="M0 0 C4.11012836 2.45367576 4.11012836 2.45367576 5.8125 4.08203125 C5.8125 4.74203125 5.8125 5.40203125 5.8125 6.08203125 C4.57886719 6.10330078 4.57886719 6.10330078 3.3203125 6.125 C-6.26073425 6.53435188 -14.00583824 8.25825546 -20.6875 15.51953125 C-25.80040862 22.27896976 -25.42573413 28.90265935 -25.1875 37.08203125 C-28.4875 38.07203125 -31.7875 39.06203125 -35.1875 40.08203125 C-35.08984375 37.38020833 -34.9921875 34.67838542 -34.89453125 31.9765625 C-35.23542212 28.60856069 -36.45313454 26.94731027 -38.1875 24.08203125 C-39.09869142 18.05667535 -39.14027104 11.76441904 -35.5859375 6.609375 C-26.30538171 -3.52665102 -12.37057273 -6.43542662 0 0 Z " fill="#FFFFFF" transform="translate(38.1875,7.91796875)"/>
<path d="M0 0 C0.66 0 1.32 0 2 0 C2.33 1.65 2.66 3.3 3 5 C1.68 5 0.36 5 -1 5 C-1.33 4.34 -1.66 3.68 -2 3 C-1.34 2.01 -0.68 1.02 0 0 Z " fill="#FFFFFF" transform="translate(50,34)"/>
<path d="M0 0 C0.99 0.33 1.98 0.66 3 1 C3.33 1.99 3.66 2.98 4 4 C2.02 4.99 2.02 4.99 0 6 C-1.125 2.25 -1.125 2.25 0 0 Z " fill="#FFFFFF" transform="translate(27,34)"/>
</svg>
